<?xml version="1.0" encoding="UTF-8" standalone="no"?>
<!DOCTYPE svg PUBLIC "-//W3C//DTD SVG 1.1//EN"
 "http://www.w3.org/Graphics/SVG/1.1/DTD/svg11.dtd">
<!-- Generated by graphviz version 15.1.0 (20260618.0150)
 -->
<!-- Title: RevABoard Pages: 1 -->
<svg width="1471pt" height="1164pt"
 viewBox="0.00 0.00 1471.00 1164.00" xmlns="http://www.w3.org/2000/svg" xmlns:xlink="http://www.w3.org/1999/xlink">
<g id="graph0" class="graph" transform="scale(1 1) rotate(0) translate(4 1159.5)">
<title>RevABoard</title>
<polygon fill="white" stroke="none" points="-4,4 -4,-1159.5 1466.75,-1159.5 1466.75,4 -4,4"/>
<text xml:space="preserve" text-anchor="middle" x="731.38" y="-1132.5" font-family="Times,serif" font-size="20.00">WE302 Operator Rev A As&#45;Built Board</text>
<g id="clust1" class="cluster">
<title>cluster_pi</title>
<path fill="none" stroke="#2f6fbb" d="M12,-8C12,-8 200.5,-8 200.5,-8 206.5,-8 212.5,-14 212.5,-20 212.5,-20 212.5,-547 212.5,-547 212.5,-553 206.5,-559 200.5,-559 200.5,-559 12,-559 12,-559 6,-559 0,-553 0,-547 0,-547 0,-20 0,-20 0,-14 6,-8 12,-8"/>
<text xml:space="preserve" text-anchor="middle" x="106.25" y="-536" font-family="Times,serif" font-size="20.00">Raspberry Pi 5 + ATR2x</text>
</g>
<g id="clust2" class="cluster">
<title>cluster_board</title>
<path fill="none" stroke="#4f8f45" d="M333,-177C333,-177 986.25,-177 986.25,-177 992.25,-177 998.25,-183 998.25,-189 998.25,-189 998.25,-650 998.25,-650 998.25,-656 992.25,-662 986.25,-662 986.25,-662 333,-662 333,-662 327,-662 321,-656 321,-650 321,-650 321,-189 321,-189 321,-183 327,-177 333,-177"/>
<text xml:space="preserve" text-anchor="middle" x="659.62" y="-639" font-family="Times,serif" font-size="20.00">Rev A Interface Board</text>
</g>
<g id="clust3" class="cluster">
<title>cluster_bm</title>
<path fill="none" stroke="#b94b4b" d="M849.88,-670C849.88,-670 1072.88,-670 1072.88,-670 1078.88,-670 1084.88,-676 1084.88,-682 1084.88,-682 1084.88,-903 1084.88,-903 1084.88,-909 1078.88,-915 1072.88,-915 1072.88,-915 849.88,-915 849.88,-915 843.88,-915 837.88,-909 837.88,-903 837.88,-903 837.88,-682 837.88,-682 837.88,-676 843.88,-670 849.88,-670"/>
<text xml:space="preserve" text-anchor="middle" x="961.38" y="-892" font-family="Times,serif" font-size="20.00">Black Magic Ring Generator</text>
</g>
<g id="clust4" class="cluster">
<title>cluster_phone</title>
<path fill="none" stroke="#8661b5" d="M1167,-656C1167,-656 1450.75,-656 1450.75,-656 1456.75,-656 1462.75,-662 1462.75,-668 1462.75,-668 1462.75,-1105 1462.75,-1105 1462.75,-1111 1456.75,-1117 1450.75,-1117 1450.75,-1117 1167,-1117 1167,-1117 1161,-1117 1155,-1111 1155,-1105 1155,-1105 1155,-668 1155,-668 1155,-662 1161,-656 1167,-656"/>
<text xml:space="preserve" text-anchor="middle" x="1308.88" y="-1094" font-family="Times,serif" font-size="20.00">Western Electric 302 Bypassed Parts</text>
</g>
<!-- pi5 -->
<g id="node1" class="node">
<title>pi5</title>
<polygon fill="none" stroke="black" points="132.75,-280 78.75,-280 78.75,-244 132.75,-244 132.75,-280"/>
<text xml:space="preserve" text-anchor="middle" x="105.75" y="-265.05" font-family="Times,serif" font-size="11.00">Pi 5V</text>
<text xml:space="preserve" text-anchor="middle" x="105.75" y="-251.55" font-family="Times,serif" font-size="11.00">pin 2/4</text>
</g>
<!-- board5 -->
<g id="node10" class="node">
<title>board5</title>
<polygon fill="none" stroke="black" points="406.38,-275 352.38,-275 352.38,-239 406.38,-239 406.38,-275"/>
<text xml:space="preserve" text-anchor="middle" x="379.38" y="-253.3" font-family="Times,serif" font-size="11.00">+5V rail</text>
</g>
<!-- pi5&#45;&gt;board5 -->
<g id="edge1" class="edge">
<title>pi5&#45;&gt;board5</title>
<path fill="none" stroke="black" d="M132.79,-261.52C181.14,-260.63 284.92,-258.72 340.84,-257.69"/>
<polygon fill="black" stroke="black" points="340.56,-261.2 350.5,-257.51 340.43,-254.2 340.56,-261.2"/>
</g>
<!-- pignd -->
<g id="node2" class="node">
<title>pignd</title>
<polygon fill="none" stroke="black" points="132.75,-160 78.75,-160 78.75,-124 132.75,-124 132.75,-160"/>
<text xml:space="preserve" text-anchor="middle" x="105.75" y="-138.3" font-family="Times,serif" font-size="11.00">Pi GND</text>
</g>
<!-- boardg -->
<g id="node11" class="node">
<title>boardg</title>
<polygon fill="none" stroke="black" points="990.25,-324 931.5,-324 931.5,-288 990.25,-288 990.25,-324"/>
<text xml:space="preserve" text-anchor="middle" x="960.88" y="-302.3" font-family="Times,serif" font-size="11.00">GND rail</text>
</g>
<!-- pignd&#45;&gt;boardg -->
<g id="edge2" class="edge">
<title>pignd&#45;&gt;boardg</title>
<path fill="none" stroke="black" d="M133.23,-136.79C181.68,-127.72 287.92,-110 378.38,-110 378.38,-110 378.38,-110 761.12,-110 855.2,-110 920.89,-222.71 947.14,-277.19"/>
<polygon fill="black" stroke="black" points="943.95,-278.62 951.36,-286.19 950.29,-275.65 943.95,-278.62"/>
</g>
<!-- gpio17 -->
<g id="node3" class="node">
<title>gpio17</title>
<polygon fill="none" stroke="black" points="132.75,-400.25 78.75,-400.25 78.75,-351.75 132.75,-351.75 132.75,-400.25"/>
<text xml:space="preserve" text-anchor="middle" x="105.75" y="-385.8" font-family="Times,serif" font-size="11.00">GPIO17</text>
<text xml:space="preserve" text-anchor="middle" x="105.75" y="-372.3" font-family="Times,serif" font-size="11.00">pin 11</text>
<text xml:space="preserve" text-anchor="middle" x="105.75" y="-358.8" font-family="Times,serif" font-size="11.00">hook</text>
</g>
<!-- r_hook -->
<g id="node12" class="node">
<title>r_hook</title>
<polygon fill="none" stroke="black" points="410.25,-449 348.5,-449 348.5,-413 410.25,-413 410.25,-449"/>
<text xml:space="preserve" text-anchor="middle" x="379.38" y="-434.05" font-family="Times,serif" font-size="11.00">R_HOOK</text>
<text xml:space="preserve" text-anchor="middle" x="379.38" y="-420.55" font-family="Times,serif" font-size="11.00">1k</text>
</g>
<!-- gpio17&#45;&gt;r_hook -->
<g id="edge3" class="edge">
<title>gpio17&#45;&gt;r_hook</title>
<path fill="none" stroke="black" d="M133.24,-380.89C172.24,-388.15 247.37,-402.36 311,-415.75 319.49,-417.54 328.55,-419.53 337.2,-421.47"/>
<polygon fill="black" stroke="black" points="336.23,-424.84 346.76,-423.64 337.78,-418.01 336.23,-424.84"/>
<text xml:space="preserve" text-anchor="middle" x="266.75" y="-417.5" font-family="Times,serif" font-size="10.00">hook input</text>
</g>
<!-- gpio10 -->
<g id="node4" class="node">
<title>gpio10</title>
<polygon fill="none" stroke="black" points="132.75,-520.25 78.75,-520.25 78.75,-471.75 132.75,-471.75 132.75,-520.25"/>
<text xml:space="preserve" text-anchor="middle" x="105.75" y="-505.8" font-family="Times,serif" font-size="11.00">GPIO10</text>
<text xml:space="preserve" text-anchor="middle" x="105.75" y="-492.3" font-family="Times,serif" font-size="11.00">pin 19</text>
<text xml:space="preserve" text-anchor="middle" x="105.75" y="-478.8" font-family="Times,serif" font-size="11.00">pulse</text>
</g>
<!-- r_pulse -->
<g id="node13" class="node">
<title>r_pulse</title>
<polygon fill="none" stroke="black" points="410.62,-569 348.12,-569 348.12,-533 410.62,-533 410.62,-569"/>
<text xml:space="preserve" text-anchor="middle" x="379.38" y="-554.05" font-family="Times,serif" font-size="11.00">R_PULSE</text>
<text xml:space="preserve" text-anchor="middle" x="379.38" y="-540.55" font-family="Times,serif" font-size="11.00">1k</text>
</g>
<!-- gpio10&#45;&gt;r_pulse -->
<g id="edge5" class="edge">
<title>gpio10&#45;&gt;r_pulse</title>
<path fill="none" stroke="black" d="M132.79,-501.27C180,-510.83 280.05,-531.09 336.8,-542.58"/>
<polygon fill="black" stroke="black" points="335.9,-545.97 346.4,-544.53 337.29,-539.11 335.9,-545.97"/>
<text xml:space="preserve" text-anchor="middle" x="266.75" y="-538" font-family="Times,serif" font-size="10.00">closure to GND pulse</text>
</g>
<!-- gpio23 -->
<g id="node5" class="node">
<title>gpio23</title>
<polygon fill="none" stroke="black" points="132.75,-226.25 78.75,-226.25 78.75,-177.75 132.75,-177.75 132.75,-226.25"/>
<text xml:space="preserve" text-anchor="middle" x="105.75" y="-211.8" font-family="Times,serif" font-size="11.00">GPIO23</text>
<text xml:space="preserve" text-anchor="middle" x="105.75" y="-198.3" font-family="Times,serif" font-size="11.00">pin 16</text>
<text xml:space="preserve" text-anchor="middle" x="105.75" y="-184.8" font-family="Times,serif" font-size="11.00">ring</text>
</g>
<!-- r_base -->
<g id="node14" class="node">
<title>r_base</title>
<polygon fill="none" stroke="black" points="608.88,-221 532.88,-221 532.88,-185 608.88,-185 608.88,-221"/>
<text xml:space="preserve" text-anchor="middle" x="570.88" y="-206.05" font-family="Times,serif" font-size="11.00">R_Q1_BASE</text>
<text xml:space="preserve" text-anchor="middle" x="570.88" y="-192.55" font-family="Times,serif" font-size="11.00">1k</text>
</g>
<!-- gpio23&#45;&gt;r_base -->
<g id="edge7" class="edge">
<title>gpio23&#45;&gt;r_base</title>
<path fill="none" stroke="black" d="M133.17,-194.51C188.34,-179.85 319.81,-150.01 429.75,-164.75 460.8,-168.91 494.72,-178.04 521.41,-186.34"/>
<polygon fill="black" stroke="black" points="520.34,-189.68 530.93,-189.37 522.46,-183 520.34,-189.68"/>
<text xml:space="preserve" text-anchor="middle" x="379.38" y="-166.5" font-family="Times,serif" font-size="10.00">ring command</text>
</g>
<!-- hp_tip -->
<g id="node6" class="node">
<title>hp_tip</title>
<polygon fill="none" stroke="black" points="144.5,-334 67,-334 67,-298 144.5,-298 144.5,-334"/>
<text xml:space="preserve" text-anchor="middle" x="105.75" y="-319.05" font-family="Times,serif" font-size="11.00">ATR2x</text>
<text xml:space="preserve" text-anchor="middle" x="105.75" y="-305.55" font-family="Times,serif" font-size="11.00">headphone tip</text>
</g>
<!-- r_hp -->
<g id="node19" class="node">
<title>r_hp</title>
<polygon fill="none" stroke="black" points="421.88,-395 336.88,-395 336.88,-359 421.88,-359 421.88,-395"/>
<text xml:space="preserve" text-anchor="middle" x="379.38" y="-380.05" font-family="Times,serif" font-size="11.00">R_HP_SERIES</text>
<text xml:space="preserve" text-anchor="middle" x="379.38" y="-366.55" font-family="Times,serif" font-size="11.00">220 ohm</text>
</g>
<!-- hp_tip&#45;&gt;r_hp -->
<g id="edge20" class="edge">
<title>hp_tip&#45;&gt;r_hp</title>
<path fill="none" stroke="black" d="M144.8,-324.55C191.87,-335.12 272.25,-353.17 325.35,-365.09"/>
<polygon fill="black" stroke="black" points="324.57,-368.5 335.09,-367.28 326.1,-361.67 324.57,-368.5"/>
<text xml:space="preserve" text-anchor="middle" x="266.75" y="-362.39" font-family="Times,serif" font-size="10.00">receiver signal</text>
</g>
<!-- hp_sleeve -->
<g id="node7" class="node">
<title>hp_sleeve</title>
<polygon fill="none" stroke="black" points="153.12,-52 58.38,-52 58.38,-16 153.12,-16 153.12,-52"/>
<text xml:space="preserve" text-anchor="middle" x="105.75" y="-37.05" font-family="Times,serif" font-size="11.00">ATR2x</text>
<text xml:space="preserve" text-anchor="middle" x="105.75" y="-23.55" font-family="Times,serif" font-size="11.00">headphone sleeve</text>
</g>
<!-- redr -->
<g id="node37" class="node">
<title>redr</title>
<polygon fill="none" stroke="black" points="1335.38,-700 1281.38,-700 1281.38,-664 1335.38,-664 1335.38,-700"/>
<text xml:space="preserve" text-anchor="middle" x="1308.38" y="-685.05" font-family="Times,serif" font-size="11.00">red/R</text>
<text xml:space="preserve" text-anchor="middle" x="1308.38" y="-671.55" font-family="Times,serif" font-size="11.00">common</text>
</g>
<!-- hp_sleeve&#45;&gt;redr -->
<g id="edge22" class="edge">
<title>hp_sleeve&#45;&gt;redr</title>
<path fill="none" stroke="black" d="M153.37,-34C207.48,-34 299.39,-34 378.38,-34 378.38,-34 378.38,-34 961.88,-34 1245.96,-34 1297.26,-524.96 1305.79,-652.18"/>
<polygon fill="black" stroke="black" points="1302.29,-652.38 1306.41,-662.14 1309.28,-651.94 1302.29,-652.38"/>
<text xml:space="preserve" text-anchor="middle" x="660.62" y="-35.75" font-family="Times,serif" font-size="10.00">audio common</text>
</g>
<!-- mic_tip -->
<g id="node8" class="node">
<title>mic_tip</title>
<polygon fill="none" stroke="black" points="132.75,-454 78.75,-454 78.75,-418 132.75,-418 132.75,-454"/>
<text xml:space="preserve" text-anchor="middle" x="105.75" y="-439.05" font-family="Times,serif" font-size="11.00">ATR2x</text>
<text xml:space="preserve" text-anchor="middle" x="105.75" y="-425.55" font-family="Times,serif" font-size="11.00">mic tip</text>
</g>
<!-- mic_sleeve -->
<g id="node9" class="node">
<title>mic_sleeve</title>
<polygon fill="none" stroke="black" points="137.75,-106 73.75,-106 73.75,-70 137.75,-70 137.75,-106"/>
<text xml:space="preserve" text-anchor="middle" x="105.75" y="-91.05" font-family="Times,serif" font-size="11.00">ATR2x</text>
<text xml:space="preserve" text-anchor="middle" x="105.75" y="-77.55" font-family="Times,serif" font-size="11.00">mic sleeve</text>
</g>
<!-- mic_sleeve&#45;&gt;boardg -->
<g id="edge32" class="edge">
<title>mic_sleeve&#45;&gt;boardg</title>
<path fill="none" stroke="black" d="M138.08,-84.95C188.6,-80.31 291.22,-72 378.38,-72 378.38,-72 378.38,-72 761.12,-72 867.5,-72 928.81,-214.22 950.67,-276.91"/>
<polygon fill="black" stroke="black" points="947.29,-277.85 953.81,-286.2 953.92,-275.61 947.29,-277.85"/>
</g>
<!-- coil -->
<g id="node16" class="node">
<title>coil</title>
<polygon fill="none" stroke="black" points="599.88,-275 541.88,-275 541.88,-239 599.88,-239 599.88,-275"/>
<text xml:space="preserve" text-anchor="middle" x="570.88" y="-260.05" font-family="Times,serif" font-size="11.00">Axicom</text>
<text xml:space="preserve" text-anchor="middle" x="570.88" y="-246.55" font-family="Times,serif" font-size="11.00">relay coil</text>
</g>
<!-- board5&#45;&gt;coil -->
<g id="edge9" class="edge">
<title>board5&#45;&gt;coil</title>
<path fill="none" stroke="black" d="M406.72,-257C438.75,-257 493.1,-257 530.2,-257"/>
<polygon fill="black" stroke="black" points="530.07,-260.5 540.07,-257 530.07,-253.5 530.07,-260.5"/>
</g>
<!-- contact -->
<g id="node18" class="node">
<title>contact</title>
<polygon fill="none" stroke="black" points="601.75,-533 540,-533 540,-497 601.75,-497 601.75,-533"/>
<text xml:space="preserve" text-anchor="middle" x="570.88" y="-518.05" font-family="Times,serif" font-size="11.00">Relay NO</text>
<text xml:space="preserve" text-anchor="middle" x="570.88" y="-504.55" font-family="Times,serif" font-size="11.00">contact</text>
</g>
<!-- board5&#45;&gt;contact -->
<g id="edge13" class="edge">
<title>board5&#45;&gt;contact</title>
<path fill="none" stroke="black" d="M406.64,-265.75C415.33,-269.93 424.19,-275.85 429.75,-284 465.13,-335.81 416.08,-369.85 447.75,-424 466.65,-456.32 502.01,-480.73 529.84,-496.09"/>
<polygon fill="black" stroke="black" points="527.89,-499.02 538.37,-500.63 531.18,-492.84 527.89,-499.02"/>
<text xml:space="preserve" text-anchor="middle" x="481.12" y="-487.29" font-family="Times,serif" font-size="10.00">switched +5V</text>
</g>
<!-- r_mic_min -->
<g id="node20" class="node">
<title>r_mic_min</title>
<polygon fill="none" stroke="black" points="609.25,-457 532.5,-457 532.5,-421 609.25,-421 609.25,-457"/>
<text xml:space="preserve" text-anchor="middle" x="570.88" y="-442.05" font-family="Times,serif" font-size="11.00">R_MIC_MIN</text>
<text xml:space="preserve" text-anchor="middle" x="570.88" y="-428.55" font-family="Times,serif" font-size="11.00">220 ohm</text>
</g>
<!-- board5&#45;&gt;r_mic_min -->
<g id="edge23" class="edge">
<title>board5&#45;&gt;r_mic_min</title>
<path fill="none" stroke="black" d="M406.77,-266.6C415.15,-270.8 423.79,-276.51 429.75,-284 448.15,-307.12 431.01,-323.65 447.75,-348 467.14,-376.21 498.15,-399.16 524.07,-414.95"/>
<polygon fill="black" stroke="black" points="522.03,-417.81 532.42,-419.88 525.59,-411.79 522.03,-417.81"/>
<text xml:space="preserve" text-anchor="middle" x="481.12" y="-410.19" font-family="Times,serif" font-size="10.00">mic drive</text>
</g>
<!-- bm_gnd -->
<g id="node28" class="node">
<title>bm_gnd</title>
<polygon fill="none" stroke="black" points="993.62,-714 928.12,-714 928.12,-678 993.62,-678 993.62,-714"/>
<text xml:space="preserve" text-anchor="middle" x="960.88" y="-692.3" font-family="Times,serif" font-size="11.00">GND input</text>
</g>
<!-- boardg&#45;&gt;bm_gnd -->
<g id="edge15" class="edge">
<title>boardg&#45;&gt;bm_gnd</title>
<path fill="none" stroke="black" d="M949.56,-324.08C910.91,-386.9 788.32,-595.23 823.06,-657 840.89,-688.7 883.33,-696.91 916.44,-698.12"/>
<polygon fill="black" stroke="black" points="916.14,-701.61 926.19,-698.26 916.25,-694.61 916.14,-701.61"/>
</g>
<!-- y -->
<g id="node31" class="node">
<title>y</title>
<polygon fill="none" stroke="black" points="1335.38,-754 1281.38,-754 1281.38,-718 1335.38,-718 1335.38,-754"/>
<text xml:space="preserve" text-anchor="middle" x="1308.38" y="-739.05" font-family="Times,serif" font-size="11.00">Y</text>
<text xml:space="preserve" text-anchor="middle" x="1308.38" y="-725.55" font-family="Times,serif" font-size="11.00">common</text>
</g>
<!-- boardg&#45;&gt;y -->
<g id="edge18" class="edge">
<title>boardg&#45;&gt;y</title>
<path fill="none" stroke="black" d="M970.16,-324.49C1004.91,-401.82 1137.84,-695.96 1155,-709 1188.01,-734.08 1236.59,-738.73 1269.97,-738.47"/>
<polygon fill="black" stroke="black" points="1269.67,-741.98 1279.58,-738.24 1269.5,-734.99 1269.67,-741.98"/>
</g>
<!-- boardg&#45;&gt;redr -->
<g id="edge19" class="edge">
<title>boardg&#45;&gt;redr</title>
<path fill="none" stroke="black" d="M990.69,-314.79C1029.62,-327.87 1099.38,-355.65 1145,-399 1224.52,-474.56 1276.65,-597.75 1297.32,-653.27"/>
<polygon fill="black" stroke="black" points="1293.91,-654.13 1300.63,-662.32 1300.49,-651.73 1293.91,-654.13"/>
</g>
<!-- bk -->
<g id="node32" class="node">
<title>bk</title>
<polygon fill="none" stroke="black" points="1335.38,-970 1281.38,-970 1281.38,-934 1335.38,-934 1335.38,-970"/>
<text xml:space="preserve" text-anchor="middle" x="1308.38" y="-955.05" font-family="Times,serif" font-size="11.00">BK</text>
<text xml:space="preserve" text-anchor="middle" x="1308.38" y="-941.55" font-family="Times,serif" font-size="11.00">hook</text>
</g>
<!-- r_hook&#45;&gt;bk -->
<g id="edge4" class="edge">
<title>r_hook&#45;&gt;bk</title>
<path fill="none" stroke="black" d="M410.68,-441.93C417.96,-445.92 425,-451.19 429.75,-458 460.85,-502.59 435.63,-526 447.75,-579 488.44,-756.89 387.39,-971 569.88,-971 569.88,-971 569.88,-971 827.25,-971 992.26,-971 1188.93,-959.66 1269.81,-954.5"/>
<polygon fill="black" stroke="black" points="1269.84,-958 1279.6,-953.87 1269.39,-951.02 1269.84,-958"/>
<text xml:space="preserve" text-anchor="middle" x="760.12" y="-972.75" font-family="Times,serif" font-size="10.00">hook input</text>
</g>
<!-- bb -->
<g id="node33" class="node">
<title>bb</title>
<polygon fill="none" stroke="black" points="1335.38,-1078 1281.38,-1078 1281.38,-1042 1335.38,-1042 1335.38,-1078"/>
<text xml:space="preserve" text-anchor="middle" x="1308.38" y="-1063.05" font-family="Times,serif" font-size="11.00">BB</text>
<text xml:space="preserve" text-anchor="middle" x="1308.38" y="-1049.55" font-family="Times,serif" font-size="11.00">pulse</text>
</g>
<!-- r_pulse&#45;&gt;bb -->
<g id="edge6" class="edge">
<title>r_pulse&#45;&gt;bb</title>
<path fill="none" stroke="black" d="M410.94,-561.45C418.32,-565.46 425.34,-570.85 429.75,-578 459.01,-625.4 413.1,-1035.39 447.75,-1079 482.73,-1123.02 513.65,-1112 569.88,-1112 569.88,-1112 569.88,-1112 961.88,-1112 1075.23,-1112 1207.19,-1084.29 1270.2,-1069.33"/>
<polygon fill="black" stroke="black" points="1270.76,-1072.79 1279.67,-1067.05 1269.12,-1065.99 1270.76,-1072.79"/>
<text xml:space="preserve" text-anchor="middle" x="760.12" y="-1113.75" font-family="Times,serif" font-size="10.00">closure to GND pulse</text>
</g>
<!-- q1 -->
<g id="node15" class="node">
<title>q1</title>
<polygon fill="none" stroke="black" points="794,-275 726.25,-275 726.25,-239 794,-239 794,-275"/>
<text xml:space="preserve" text-anchor="middle" x="760.12" y="-260.05" font-family="Times,serif" font-size="11.00">Q1 NPN</text>
<text xml:space="preserve" text-anchor="middle" x="760.12" y="-246.55" font-family="Times,serif" font-size="11.00">relay driver</text>
</g>
<!-- r_base&#45;&gt;q1 -->
<g id="edge8" class="edge">
<title>r_base&#45;&gt;q1</title>
<path fill="none" stroke="black" d="M609.32,-213.8C639.77,-222.58 682.81,-234.99 714.95,-244.26"/>
<polygon fill="black" stroke="black" points="713.79,-247.57 724.37,-246.98 715.73,-240.84 713.79,-247.57"/>
<text xml:space="preserve" text-anchor="middle" x="660.62" y="-239.74" font-family="Times,serif" font-size="10.00">ring command</text>
</g>
<!-- q1&#45;&gt;boardg -->
<g id="edge11" class="edge">
<title>q1&#45;&gt;boardg</title>
<path fill="none" stroke="black" d="M794.39,-265.2C829.04,-273.74 883.32,-287.13 920.18,-296.21"/>
<polygon fill="black" stroke="black" points="919.01,-299.53 929.56,-298.53 920.69,-292.73 919.01,-299.53"/>
</g>
<!-- coil&#45;&gt;q1 -->
<g id="edge10" class="edge">
<title>coil&#45;&gt;q1</title>
<path fill="none" stroke="black" d="M600.31,-257C630.65,-257 679.1,-257 714.52,-257"/>
<polygon fill="black" stroke="black" points="714.48,-260.5 724.48,-257 714.48,-253.5 714.48,-260.5"/>
<text xml:space="preserve" text-anchor="middle" x="660.62" y="-258.75" font-family="Times,serif" font-size="10.00">low&#45;side switch</text>
</g>
<!-- diode -->
<g id="node17" class="node">
<title>diode</title>
<polygon fill="none" stroke="black" points="416.62,-221 342.12,-221 342.12,-185 416.62,-185 416.62,-221"/>
<text xml:space="preserve" text-anchor="middle" x="379.38" y="-206.05" font-family="Times,serif" font-size="11.00">D1 flyback</text>
<text xml:space="preserve" text-anchor="middle" x="379.38" y="-192.55" font-family="Times,serif" font-size="11.00">stripe to +5V</text>
</g>
<!-- diode&#45;&gt;coil -->
<g id="edge12" class="edge">
<title>diode&#45;&gt;coil</title>
<path fill="none" stroke="black" d="M416.91,-213.41C449.57,-222.72 497.3,-236.32 530.73,-245.85"/>
<polygon fill="black" stroke="black" points="529.45,-249.12 540.02,-248.49 531.37,-242.39 529.45,-249.12"/>
<text xml:space="preserve" text-anchor="middle" x="481.12" y="-242.79" font-family="Times,serif" font-size="10.00">across coil</text>
</g>
<!-- bm_plus -->
<g id="node27" class="node">
<title>bm_plus</title>
<polygon fill="none" stroke="black" points="990.62,-768 931.12,-768 931.12,-732 990.62,-732 990.62,-768"/>
<text xml:space="preserve" text-anchor="middle" x="960.88" y="-746.3" font-family="Times,serif" font-size="11.00">+5V input</text>
</g>
<!-- contact&#45;&gt;bm_plus -->
<g id="edge14" class="edge">
<title>contact&#45;&gt;bm_plus</title>
<path fill="none" stroke="black" d="M588.07,-533.28C598.73,-544.88 613.24,-559.94 627.25,-572 714.53,-647.16 732.7,-676.04 837.88,-723 863.75,-734.55 894.98,-741.34 919.37,-745.23"/>
<polygon fill="black" stroke="black" points="918.84,-748.69 929.24,-746.69 919.86,-741.76 918.84,-748.69"/>
<text xml:space="preserve" text-anchor="middle" x="760.12" y="-710.77" font-family="Times,serif" font-size="10.00">switched +5V</text>
</g>
<!-- white -->
<g id="node36" class="node">
<title>white</title>
<polygon fill="none" stroke="black" points="1335.38,-862 1281.38,-862 1281.38,-826 1335.38,-826 1335.38,-862"/>
<text xml:space="preserve" text-anchor="middle" x="1308.38" y="-847.05" font-family="Times,serif" font-size="11.00">white</text>
<text xml:space="preserve" text-anchor="middle" x="1308.38" y="-833.55" font-family="Times,serif" font-size="11.00">receiver</text>
</g>
<!-- r_hp&#45;&gt;white -->
<g id="edge21" class="edge">
<title>r_hp&#45;&gt;white</title>
<path fill="none" stroke="black" d="M421.61,-395.47C424.68,-398 427.46,-400.84 429.75,-404 455.47,-439.51 428,-461.85 447.75,-501 562.2,-727.89 604.81,-817.72 837.88,-919 938.56,-962.75 980,-951.45 1084.88,-919 1120.96,-907.83 1120.04,-885.28 1155,-871 1192.27,-855.78 1238.12,-849.12 1269.73,-846.22"/>
<polygon fill="black" stroke="black" points="1269.92,-849.72 1279.6,-845.41 1269.34,-842.74 1269.92,-849.72"/>
<text xml:space="preserve" text-anchor="middle" x="760.12" y="-907.4" font-family="Times,serif" font-size="10.00">receiver signal</text>
</g>
<!-- rv_mic -->
<g id="node21" class="node">
<title>rv_mic</title>
<polygon fill="none" stroke="black" points="808.25,-596 712,-596 712,-560 808.25,-560 808.25,-596"/>
<text xml:space="preserve" text-anchor="middle" x="760.12" y="-581.05" font-family="Times,serif" font-size="11.00">RV_MIC_DRIVE</text>
<text xml:space="preserve" text-anchor="middle" x="760.12" y="-567.55" font-family="Times,serif" font-size="11.00">10k rheostat</text>
</g>
<!-- r_mic_min&#45;&gt;rv_mic -->
<g id="edge24" class="edge">
<title>r_mic_min&#45;&gt;rv_mic</title>
<path fill="none" stroke="black" d="M586.64,-457.21C593.75,-466.27 602.24,-477.5 609.25,-488 618.1,-501.25 615.41,-508.34 627.25,-519 648.2,-537.85 676.17,-551.52 700.96,-560.93"/>
<polygon fill="black" stroke="black" points="699.7,-564.19 710.3,-564.31 702.08,-557.61 699.7,-564.19"/>
<text xml:space="preserve" text-anchor="middle" x="660.62" y="-558.65" font-family="Times,serif" font-size="10.00">mic drive</text>
</g>
<!-- black -->
<g id="node38" class="node">
<title>black</title>
<polygon fill="none" stroke="black" points="1341.12,-1024 1275.62,-1024 1275.62,-988 1341.12,-988 1341.12,-1024"/>
<text xml:space="preserve" text-anchor="middle" x="1308.38" y="-1009.05" font-family="Times,serif" font-size="11.00">black</text>
<text xml:space="preserve" text-anchor="middle" x="1308.38" y="-995.55" font-family="Times,serif" font-size="11.00">carbon mic</text>
</g>
<!-- rv_mic&#45;&gt;black -->
<g id="edge25" class="edge">
<title>rv_mic&#45;&gt;black</title>
<path fill="none" stroke="black" d="M783.86,-596.45C798.41,-607.23 818.2,-620.04 837.88,-627 889.95,-645.42 1047.16,-614.4 1084.88,-654.75 1103.05,-674.19 1086.94,-868.81 1095.5,-894 1110.34,-937.66 1116.12,-954.2 1155,-979 1187.58,-999.78 1231.65,-1005.73 1264.02,-1006.96"/>
<polygon fill="black" stroke="black" points="1263.78,-1010.45 1273.86,-1007.18 1263.94,-1003.46 1263.78,-1010.45"/>
<text xml:space="preserve" text-anchor="middle" x="960.88" y="-656.5" font-family="Times,serif" font-size="10.00">mic drive</text>
</g>
<!-- c_mic -->
<g id="node22" class="node">
<title>c_mic</title>
<polygon fill="none" stroke="black" points="429,-515.25 329.75,-515.25 329.75,-466.75 429,-466.75 429,-515.25"/>
<text xml:space="preserve" text-anchor="middle" x="379.38" y="-500.8" font-family="Times,serif" font-size="11.00">C_MIC_REC</text>
<text xml:space="preserve" text-anchor="middle" x="379.38" y="-487.3" font-family="Times,serif" font-size="11.00">mic recording/gain</text>
<text xml:space="preserve" text-anchor="middle" x="379.38" y="-473.8" font-family="Times,serif" font-size="11.00">coupling cap</text>
</g>
<!-- c_mic&#45;&gt;mic_tip -->
<g id="edge27" class="edge">
<title>c_mic&#45;&gt;mic_tip</title>
<path fill="none" stroke="black" d="M329.39,-481.08C276.09,-470.29 192.07,-453.28 143.93,-443.53"/>
<polygon fill="black" stroke="black" points="144.77,-440.13 134.28,-441.57 143.38,-446.99 144.77,-440.13"/>
<text xml:space="preserve" text-anchor="middle" x="266.75" y="-478" font-family="Times,serif" font-size="10.00">AC coupled mic</text>
</g>
<!-- c_side -->
<g id="node23" class="node">
<title>c_side</title>
<polygon fill="none" stroke="black" points="429.75,-341.25 329,-341.25 329,-292.75 429.75,-292.75 429.75,-341.25"/>
<text xml:space="preserve" text-anchor="middle" x="379.38" y="-326.8" font-family="Times,serif" font-size="11.00">C_SIDE</text>
<text xml:space="preserve" text-anchor="middle" x="379.38" y="-313.3" font-family="Times,serif" font-size="11.00">470uF</text>
<text xml:space="preserve" text-anchor="middle" x="379.38" y="-299.8" font-family="Times,serif" font-size="11.00">+ to BLACK_MIC</text>
</g>
<!-- rv_side -->
<g id="node24" class="node">
<title>rv_side</title>
<polygon fill="none" stroke="black" points="603.25,-358 538.5,-358 538.5,-322 603.25,-322 603.25,-358"/>
<text xml:space="preserve" text-anchor="middle" x="570.88" y="-343.05" font-family="Times,serif" font-size="11.00">RV_SIDE</text>
<text xml:space="preserve" text-anchor="middle" x="570.88" y="-329.55" font-family="Times,serif" font-size="11.00">1k rheostat</text>
</g>
<!-- c_side&#45;&gt;rv_side -->
<g id="edge29" class="edge">
<title>c_side&#45;&gt;rv_side</title>
<path fill="none" stroke="black" d="M430.16,-323.04C460.23,-326.69 498.17,-331.3 526.92,-334.79"/>
<polygon fill="black" stroke="black" points="526.39,-338.25 536.73,-335.98 527.23,-331.3 526.39,-338.25"/>
<text xml:space="preserve" text-anchor="middle" x="481.12" y="-334.95" font-family="Times,serif" font-size="10.00">passive sidetone</text>
</g>
<!-- r_side -->
<g id="node25" class="node">
<title>r_side</title>
<polygon fill="none" stroke="black" points="800.38,-529 719.88,-529 719.88,-493 800.38,-493 800.38,-529"/>
<text xml:space="preserve" text-anchor="middle" x="760.12" y="-514.05" font-family="Times,serif" font-size="11.00">R_SIDE_MIN</text>
<text xml:space="preserve" text-anchor="middle" x="760.12" y="-500.55" font-family="Times,serif" font-size="11.00">10 ohm</text>
</g>
<!-- rv_side&#45;&gt;r_side -->
<g id="edge30" class="edge">
<title>rv_side&#45;&gt;r_side</title>
<path fill="none" stroke="black" d="M591.91,-358.3C625.33,-388.82 692.54,-450.19 730.79,-485.13"/>
<polygon fill="black" stroke="black" points="728.08,-487.39 737.83,-491.55 732.81,-482.22 728.08,-487.39"/>
<text xml:space="preserve" text-anchor="middle" x="660.62" y="-452.56" font-family="Times,serif" font-size="10.00">passive sidetone</text>
</g>
<!-- r_side&#45;&gt;white -->
<g id="edge31" class="edge">
<title>r_side&#45;&gt;white</title>
<path fill="none" stroke="black" d="M800.71,-512.81C868.09,-518.01 1005.47,-538.1 1084.88,-615.75 1152.6,-681.97 1082.89,-755.59 1155,-817 1186.74,-844.03 1236,-848.21 1269.87,-847.31"/>
<polygon fill="black" stroke="black" points="1269.81,-850.82 1279.64,-846.88 1269.5,-843.83 1269.81,-850.82"/>
<text xml:space="preserve" text-anchor="middle" x="960.88" y="-617.5" font-family="Times,serif" font-size="10.00">passive sidetone</text>
</g>
<!-- dec -->
<g id="node26" class="node">
<title>dec</title>
<polygon fill="none" stroke="black" points="419.25,-623 339.5,-623 339.5,-587 419.25,-587 419.25,-623"/>
<text xml:space="preserve" text-anchor="middle" x="379.38" y="-608.05" font-family="Times,serif" font-size="11.00">0.1uF + 470uF</text>
<text xml:space="preserve" text-anchor="middle" x="379.38" y="-594.55" font-family="Times,serif" font-size="11.00">decoupling</text>
</g>
<!-- bm_out1 -->
<g id="node29" class="node">
<title>bm_out1</title>
<polygon fill="none" stroke="black" points="992.5,-822 929.25,-822 929.25,-786 992.5,-786 992.5,-822"/>
<text xml:space="preserve" text-anchor="middle" x="960.88" y="-800.3" font-family="Times,serif" font-size="11.00">HV OUT1</text>
</g>
<!-- l1 -->
<g id="node34" class="node">
<title>l1</title>
<polygon fill="none" stroke="black" points="1335.38,-808 1281.38,-808 1281.38,-772 1335.38,-772 1335.38,-808"/>
<text xml:space="preserve" text-anchor="middle" x="1308.38" y="-793.05" font-family="Times,serif" font-size="11.00">L1</text>
<text xml:space="preserve" text-anchor="middle" x="1308.38" y="-779.55" font-family="Times,serif" font-size="11.00">bell</text>
</g>
<!-- bm_out1&#45;&gt;l1 -->
<g id="edge16" class="edge">
<title>bm_out1&#45;&gt;l1</title>
<path fill="none" stroke="#b91c1c" d="M992.84,-802.75C1056.41,-800.17 1201.41,-794.29 1270.05,-791.51"/>
<polygon fill="#b91c1c" stroke="#b91c1c" points="1269.8,-795.03 1279.65,-791.12 1269.51,-788.03 1269.8,-795.03"/>
<text xml:space="preserve" text-anchor="middle" x="1120.25" y="-800.21" font-family="Times,serif" font-size="10.00">isolated HV</text>
</g>
<!-- bm_out2 -->
<g id="node30" class="node">
<title>bm_out2</title>
<polygon fill="none" stroke="black" points="992.5,-876 929.25,-876 929.25,-840 992.5,-840 992.5,-876"/>
<text xml:space="preserve" text-anchor="middle" x="960.88" y="-854.3" font-family="Times,serif" font-size="11.00">HV OUT2</text>
</g>
<!-- k -->
<g id="node35" class="node">
<title>k</title>
<polygon fill="none" stroke="black" points="1335.38,-916 1281.38,-916 1281.38,-880 1335.38,-880 1335.38,-916"/>
<text xml:space="preserve" text-anchor="middle" x="1308.38" y="-901.05" font-family="Times,serif" font-size="11.00">K</text>
<text xml:space="preserve" text-anchor="middle" x="1308.38" y="-887.55" font-family="Times,serif" font-size="11.00">bell</text>
</g>
<!-- bm_out2&#45;&gt;k -->
<g id="edge17" class="edge">
<title>bm_out2&#45;&gt;k</title>
<path fill="none" stroke="#b91c1c" d="M992.84,-861.58C1056.41,-868.94 1201.41,-885.73 1270.05,-893.68"/>
<polygon fill="#b91c1c" stroke="#b91c1c" points="1269.32,-897.12 1279.66,-894.79 1270.12,-890.16 1269.32,-897.12"/>
<text xml:space="preserve" text-anchor="middle" x="1120.25" y="-880.95" font-family="Times,serif" font-size="10.00">isolated HV</text>
</g>
<!-- black&#45;&gt;c_mic -->
<g id="edge26" class="edge">
<title>black&#45;&gt;c_mic</title>
<path fill="none" stroke="black" d="M1275.42,-1011.6C1191.32,-1026.33 969.76,-1065 961.88,-1065 569.88,-1065 569.88,-1065 569.88,-1065 513.65,-1065 482.72,-1076.03 447.75,-1032 414.27,-989.84 453.24,-611.37 427.76,-525.91"/>
<polygon fill="black" stroke="black" points="431.11,-524.84 424.09,-516.9 424.62,-527.48 431.11,-524.84"/>
<text xml:space="preserve" text-anchor="middle" x="760.12" y="-1066.75" font-family="Times,serif" font-size="10.00">AC coupled mic</text>
</g>
<!-- black&#45;&gt;c_side -->
<g id="edge28" class="edge">
<title>black&#45;&gt;c_side</title>
<path fill="none" stroke="black" d="M1275.47,-1007.85C1214.55,-1011.21 1077.41,-1018 961.88,-1018 569.88,-1018 569.88,-1018 569.88,-1018 333.77,-1018 488.93,-733.48 447.75,-501 442.34,-470.45 446.58,-393.02 428.61,-351.79"/>
<polygon fill="black" stroke="black" points="431.72,-350.2 423.94,-343 425.54,-353.48 431.72,-350.2"/>
<text xml:space="preserve" text-anchor="middle" x="760.12" y="-1019.75" font-family="Times,serif" font-size="10.00">passive sidetone</text>
</g>
</g>
</svg>
